<?xml version="1.0" standalone="no"?>
<!DOCTYPE svg PUBLIC "-//W3C//DTD SVG 20010904//EN"
 "http://www.w3.org/TR/2001/REC-SVG-20010904/DTD/svg10.dtd">
<svg version="1.0" xmlns="http://www.w3.org/2000/svg"
 width="128.000000pt" height="128.000000pt" viewBox="0 0 128.000000 128.000000"
 preserveAspectRatio="xMidYMid meet">
<metadata>
Created by potrace 1.11, written by Peter Selinger 2001-2013
</metadata>
<g transform="translate(0.000000,128.000000) scale(0.100000,-0.100000)"
fill="#000000" stroke="none">
<path d="M31 986 c-8 -9 -11 -117 -9 -377 l3 -364 24 -3 c12 -2 33 -1 45 2
l23 6 -1 310 c-1 170 1 310 4 310 3 0 31 -49 62 -108 90 -168 148 -273 177
-322 15 -25 38 -67 51 -94 41 -81 71 -106 123 -106 40 0 46 3 54 28 11 33 10
702 0 720 -9 14 -73 16 -82 3 -3 -5 -6 -143 -6 -306 -1 -163 -2 -295 -3 -293
-2 2 -23 41 -48 88 -25 47 -77 141 -115 210 -38 69 -87 157 -107 195 -51 95
-75 115 -135 115 -29 0 -53 -6 -60 -14z"/>
<path d="M707 993 c-9 -9 -9 -55 1 -69 4 -6 48 -10 114 -9 l108 1 2 -335 3
-336 48 -3 c43 -3 47 -1 48 20 0 13 1 163 1 335 1 219 4 313 12 316 6 2 55 3
109 2 87 -1 100 1 109 18 5 10 7 30 4 43 l-6 24 -274 0 c-150 0 -276 -3 -279
-7z"/>
</g>
</svg>
